<?xml version="1.0" encoding="utf-8"?> <!-- Generator: Adobe Illustrator 24.1.2, SVG Export Plug-In . SVG Version: 6.00 Build 0) --> <svg version="1.1" id="Layer_1" xmlns="http://www.w3.org/2000/svg" xmlns:xlink="http://www.w3.org/1999/xlink" x="0px" y="0px" viewBox="0 0 380 371 " style="enable-background:new 0 0 380 371;" xml:space="preserve"><style type="text/css"> .st0{fill:none;stroke:#FF0000;stroke-width:7.200000e-01;stroke-linecap:round;stroke-miterlimit:288;} </style> <g transform="translate(10, 10)"> <path id="H0" vector-effect="non-scaling-stroke" class="st0" d=" M 0, 0 v 108 h 360 v -108 z M 0, 9.818181818181817 v 9.818181818181817 h 14.256 v -9.818181818181817 z M 0, 29.454545454545453 v 9.818181818181817 h 14.256 v -9.818181818181817 z M 0, 49.090909090909086 v 9.818181818181817 h 14.256 v -9.818181818181817 z M 0, 68.72727272727272 v 9.818181818181817 h 14.256 v -9.818181818181817 z M 0, 88.36363636363635 v 9.818181818181817 h 14.256 v -9.818181818181817 z M 345.74399999999997, 9.818181818181817 v 9.818181818181817 h 14.256 v -9.818181818181817 z M 345.74399999999997, 29.454545454545453 v 9.818181818181817 h 14.256 v -9.818181818181817 z M 345.74399999999997, 49.090909090909086 v 9.818181818181817 h 14.256 v -9.818181818181817 z M 345.74399999999997, 68.72727272727272 v 9.818181818181817 h 14.256 v -9.818181818181817 z M 345.74399999999997, 88.36363636363635 v 9.818181818181817 h 14.256 v -9.818181818181817 z "/> </g> <g transform="translate(10, 10)"> <path id="V0" vector-effect="non-scaling-stroke" class="st0" d=" M 0, 0 v 108 h 302.25600000000003 v -108 z M 0, 0 v 9.818181818181817 h 14.256 v -9.818181818181817 z M 0, 19.636363636363633 v 9.818181818181817 h 14.256 v -9.818181818181817 z M 0, 39.272727272727266 v 9.818181818181817 h 14.256 v -9.818181818181817 z M 0, 58.90909090909091 v 9.818181818181817 h 14.256 v -9.818181818181817 z M 0, 78.54545454545453 v 9.818181818181817 h 14.256 v -9.818181818181817 z M 0, 98.18181818181817 v 9.818181818181817 h 14.256 v -9.818181818181817 z "/> </g> <g transform="translate(10, 127)"> <path id="V1" vector-effect="non-scaling-stroke" class="st0" d=" M 0, 0 v 108 h 302.25600000000003 v -108 z M 0, 0 v 9.818181818181817 h 14.256 v -9.818181818181817 z M 0, 19.636363636363633 v 9.818181818181817 h 14.256 v -9.818181818181817 z M 0, 39.272727272727266 v 9.818181818181817 h 14.256 v -9.818181818181817 z M 0, 58.90909090909091 v 9.818181818181817 h 14.256 v -9.818181818181817 z M 0, 78.54545454545453 v 9.818181818181817 h 14.256 v -9.818181818181817 z M 0, 98.18181818181817 v 9.818181818181817 h 14.256 v -9.818181818181817 z "/> </g> </svg>